<svg width="13" height="13" viewBox="0 0 13 13" fill="none" xmlns="http://www.w3.org/2000/svg">
<path d="M5.375 10H7.625C7.625 10.2652 7.50647 10.5196 7.29549 10.7071C7.08452 10.8946 6.79837 11 6.5 11C6.20163 11 5.91548 10.8946 5.70451 10.7071C5.49353 10.5196 5.375 10.2652 5.375 10ZM9.875 8V5C9.87419 4.29156 9.59136 3.60623 9.0766 3.06539C8.56183 2.52454 7.84835 2.16307 7.0625 2.045V1.5C7.0625 1.36739 7.00324 1.24021 6.89775 1.14645C6.79226 1.05268 6.64918 1 6.5 1C6.35082 1 6.20774 1.05268 6.10225 1.14645C5.99676 1.24021 5.9375 1.36739 5.9375 1.5V2.045C5.15165 2.16307 4.43817 2.52454 3.9234 3.06539C3.40864 3.60623 3.12581 4.29156 3.125 5V8L2 9H11L9.875 8Z" fill="#9FA0A5"/>
</svg>
